<svg width="24" height="24" viewBox="0 0 23 23" fill="none" xmlns="http://www.w3.org/2000/svg">
    <path d="M19 21H5C3.9 21 3 20.1 3 19V7C3 5.9 3.9 5 5 5H19C20.1 5 21 5.9 21 7V19C21 20.1 20.1 21 19 21Z" stroke="white" stroke-width="2" stroke-miterlimit="10" stroke-linecap="round"/>
    <path d="M19 21H5C3.9 21 3 20.1 3 19V11H21V19C21 20.1 20.1 21 19 21Z" stroke="white" stroke-width="2" stroke-miterlimit="10" stroke-linecap="round"/>
    <path d="M15 3V7" stroke="white" stroke-width="1.5" stroke-miterlimit="10" stroke-linecap="round" stroke-linejoin="round"/>
    <path d="M9 3V7" stroke="white" stroke-width="1.5" stroke-miterlimit="10" stroke-linecap="round" stroke-linejoin="round"/>
    <path d="M6 15H8" stroke="white" stroke-width="1.5" stroke-miterlimit="10" stroke-linejoin="round"/>
    <path d="M10 15H12" stroke="white" stroke-width="1.5" stroke-miterlimit="10" stroke-linejoin="round"/>
    <path d="M14 15H16" stroke="white" stroke-width="1.5" stroke-miterlimit="10" stroke-linejoin="round"/>
    <path d="M6 18H8" stroke="white" stroke-width="1.5" stroke-miterlimit="10" stroke-linejoin="round"/>
    <path d="M10 18H12" stroke="white" stroke-width="1.5" stroke-miterlimit="10" stroke-linejoin="round"/>
    <path d="M14 18H16" stroke="white" stroke-width="1.5" stroke-miterlimit="10" stroke-linejoin="round"/>
</svg>
