<svg width="24" height="24" viewBox="0 0 24 24" fill="none" xmlns="http://www.w3.org/2000/svg">
	<path d="M3 9.5C3 8.67157 3 8.25736 3.17157 7.92157C3.34314 7.58579 3.65116 7.34614 4.26721 6.86684L9.87868 2.32233C10.8787 1.49019 11.3787 1.07412 12 1.07412C12.6213 1.07412 13.1213 1.49019 14.1213 2.32233L19.7328 6.86684C20.3488 7.34614 20.6569 7.58579 20.8284 7.92157C21 8.25736 21 8.67157 21 9.5V17.5C21 18.9045 21 19.6067 20.6629 20.1111C20.517 20.3295 20.3295 20.517 20.1111 20.6629C19.6067 21 18.9045 21 17.5 21H6.5C5.09554 21 4.39331 21 3.88886 20.6629C3.67048 20.517 3.48298 20.3295 3.33706 20.1111C3 19.6067 3 18.9045 3 17.5V9.5Z" stroke="white" stroke-width="2" stroke-linecap="round" stroke-linejoin="round"/>
	<path d="M16 21V16C16 15.4477 15.5523 15 15 15H9C8.44772 15 8 15.4477 8 16V21" stroke="white" stroke-width="2" stroke-linecap="round" stroke-linejoin="round"/>
</svg>
